<svg width="32" height="32" viewBox="0 0 32 32" fill="none" xmlns="http://www.w3.org/2000/svg">
<path d="M25.904 20.5708C25.5317 20.1985 25.0576 19.9448 24.5413 19.8415L21.3587 19.2055C19.6142 18.8566 17.8032 19.0992 16.212 19.8948L15.788 20.1055C14.1968 20.9011 12.3858 21.1437 10.6413 20.7948L8.06667 20.2802C7.63627 20.1942 7.1913 20.2158 6.77125 20.343C6.35119 20.4702 5.96903 20.6992 5.65867 21.0095M10.6667 5.3335H21.3333L20 6.66683V13.5628C20.0002 14.27 20.2812 14.9482 20.7813 15.4482L27.448 22.1148C29.128 23.7948 27.9373 26.6668 25.5613 26.6668H6.43734C4.06134 26.6668 2.872 23.7948 4.552 22.1148L11.2187 15.4482C11.7188 14.9482 11.9999 14.27 12 13.5628V6.66683L10.6667 5.3335Z" stroke="#3D5C84" stroke-width="2.66667" stroke-linecap="round" stroke-linejoin="round"/>
</svg>
