<svg width="32" height="32" viewBox="0 0 32 32" fill="none" xmlns="http://www.w3.org/2000/svg">
<path d="M12 15.9998L14.6667 18.6665L20 13.3331M10.4467 6.26247C11.4031 6.18613 12.311 5.81007 13.0413 5.1878C13.8665 4.48416 14.9155 4.09766 16 4.09766C17.0845 4.09766 18.1335 4.48416 18.9587 5.1878C19.689 5.81007 20.5969 6.18613 21.5533 6.26247C22.6343 6.34847 23.6493 6.8169 24.4161 7.5837C25.1829 8.3505 25.6513 9.36547 25.7373 10.4465C25.8137 11.4029 26.1897 12.3108 26.812 13.0411C27.5156 13.8663 27.9021 14.9153 27.9021 15.9998C27.9021 17.0843 27.5156 18.1333 26.812 18.9585C26.1897 19.6888 25.8137 20.5967 25.7373 21.5531C25.6513 22.6341 25.1829 23.6491 24.4161 24.4159C23.6493 25.1827 22.6343 25.6511 21.5533 25.7371C20.5969 25.8135 19.689 26.1895 18.9587 26.8118C18.1335 27.5154 17.0845 27.9019 16 27.9019C14.9155 27.9019 13.8665 27.5154 13.0413 26.8118C12.311 26.1895 11.4031 25.8135 10.4467 25.7371C9.36567 25.6511 8.3507 25.1827 7.5839 24.4159C6.8171 23.6491 6.34867 22.6341 6.26267 21.5531C6.18633 20.5967 5.81027 19.6888 5.188 18.9585C4.48436 18.1333 4.09785 17.0843 4.09785 15.9998C4.09785 14.9153 4.48436 13.8663 5.188 13.0411C5.81027 12.3108 6.18633 11.4029 6.26267 10.4465C6.34867 9.36547 6.8171 8.3505 7.5839 7.5837C8.3507 6.8169 9.36567 6.34847 10.4467 6.26247Z" stroke="#FED73C" stroke-width="2.66667" stroke-linecap="round" stroke-linejoin="round"/>
</svg>
